<svg width="194" height="172" viewBox="0 0 194 172" fill="none" xmlns="http://www.w3.org/2000/svg">
<g clip-path="url(#clip0_2144_43763)">
<path d="M78.4424 59.8129C78.1616 60.1108 77.8807 61.0045 77.8807 61.0045C75.9148 63.0899 77.5999 65.4731 78.4424 65.1752C80.97 64.5794 79.0041 59.515 78.4424 59.8129Z" fill="black" stroke="black" stroke-width="1.5" stroke-miterlimit="10" stroke-linecap="round" stroke-linejoin="round"/>
<path d="M112.985 58.9167C113.266 59.2146 113.828 60.1083 113.828 60.1083C115.794 61.8957 114.39 64.5769 113.547 64.5769C110.458 63.6832 112.424 58.6188 112.985 58.9167Z" fill="black" stroke="black" stroke-width="1.5" stroke-miterlimit="10" stroke-linecap="round" stroke-linejoin="round"/>
<path d="M88.8337 72.3226C93.8889 74.11 96.4164 69.0457 96.4164 69.0457C96.4164 69.0457 99.7866 74.7058 104.561 71.7268" stroke="black" stroke-width="1.5" stroke-miterlimit="10" stroke-linecap="round" stroke-linejoin="round"/>
<path d="M148.653 153.355C149.214 159.313 149.776 165.569 150.057 172.421" stroke="black" stroke-width="1.5" stroke-miterlimit="10" stroke-linecap="round" stroke-linejoin="round"/>
<path d="M41.9324 105.689C43.3366 83.0483 46.9875 41.0438 57.0979 11.2533L74.791 30.6171C74.791 30.6171 98.3818 28.8297 112.424 29.4255C124.5 16.3177 132.925 7.67847 132.925 7.67847C132.925 7.67847 146.968 56.5348 151.742 120.286" stroke="black" stroke-width="1.5" stroke-miterlimit="10" stroke-linecap="round" stroke-linejoin="round"/>
<path d="M35.4736 172.419C35.7544 166.46 36.3161 159.907 36.8778 153.948" stroke="black" stroke-width="1.5" stroke-miterlimit="10" stroke-linecap="round" stroke-linejoin="round"/>
<path d="M132.364 63.3878C153.428 57.1318 176.176 56.8339 184.32 58.3234" stroke="black" stroke-width="1.5" stroke-miterlimit="10" stroke-linecap="round" stroke-linejoin="round"/>
<path d="M134.05 72.3219C153.99 68.1513 179.265 70.8324 189.657 74.4073" stroke="black" stroke-width="1.5" stroke-miterlimit="10" stroke-linecap="round" stroke-linejoin="round"/>
<path d="M135.454 80.0659C152.305 80.6617 177.019 86.9177 183.197 91.0884" stroke="black" stroke-width="1.5" stroke-miterlimit="10" stroke-linecap="round" stroke-linejoin="round"/>
<path d="M59.9062 63.3841C38.843 57.1281 16.0947 56.5323 7.95023 58.0218" stroke="black" stroke-width="1.5" stroke-miterlimit="10" stroke-linecap="round" stroke-linejoin="round"/>
<path d="M58.5024 71.4285C38.5626 67.2578 13.2867 70.8327 2.89551 74.1096" stroke="black" stroke-width="1.5" stroke-miterlimit="10" stroke-linecap="round" stroke-linejoin="round"/>
<path d="M57.0977 80.0659C40.2471 80.6617 15.5329 86.9177 9.35437 91.0884" stroke="black" stroke-width="1.5" stroke-miterlimit="10" stroke-linecap="round" stroke-linejoin="round"/>
<path d="M92.4841 73.2188C94.45 80.9643 99.2244 80.6664 101.19 72.9209" stroke="black" stroke-width="1.5" stroke-miterlimit="10" stroke-linecap="round" stroke-linejoin="round"/>
<path d="M65.2421 97.0477C69.4547 94.9623 72.2631 94.6644 73.6673 97.3456C74.5099 99.133 73.9482 101.218 73.9482 101.218C73.9482 101.218 75.9141 102.708 76.1949 104.495C76.4758 106.283 75.3524 108.368 75.3524 108.368C75.3524 108.368 84.9011 107.176 85.7436 110.751C86.5861 114.326 77.3183 113.73 72.8248 115.22C66.9271 117.305 43.6172 124.157 40.247 134.882" stroke="black" stroke-width="1.5" stroke-miterlimit="10" stroke-linecap="round" stroke-linejoin="round"/>
<path d="M65.5229 97.0516C66.3654 94.6684 66.3654 84.5396 62.1528 86.625C59.3443 88.1145 61.3102 97.3495 56.8167 100.031C50.919 103.606 22.5539 112.543 18.9029 130.417C16.0945 143.823 27.6091 153.653 36.3152 153.058" stroke="black" stroke-width="1.5" stroke-miterlimit="10" stroke-linecap="round" stroke-linejoin="round"/>
<path d="M152.305 121.476C163.538 134.286 168.593 154.245 170.84 171.822" stroke="black" stroke-width="1.5" stroke-miterlimit="10" stroke-linecap="round" stroke-linejoin="round"/>
</g>
<defs>
<clipPath id="clip0_2144_43763">
<rect width="194" height="172" fill="white"/>
</clipPath>
</defs>
</svg>
