<svg width="14" height="18" viewBox="0 0 14 18" fill="none" xmlns="http://www.w3.org/2000/svg">
<path d="M1.99992 2.33366V15.667H11.9999V5.52366L8.80992 2.33366H1.99992ZM1.16659 0.666992H9.49992L13.4224 4.58949C13.5787 4.74574 13.6665 4.95766 13.6666 5.17866V16.5003C13.6666 16.7213 13.5788 16.9333 13.4225 17.0896C13.2662 17.2459 13.0543 17.3337 12.8333 17.3337H1.16659C0.945572 17.3337 0.73361 17.2459 0.57733 17.0896C0.421049 16.9333 0.333252 16.7213 0.333252 16.5003V1.50033C0.333252 1.27931 0.421049 1.06735 0.57733 0.91107C0.73361 0.75479 0.945572 0.666992 1.16659 0.666992ZM3.66659 9.00033H10.3333V14.0003H3.66659V9.00033Z" fill="#191C22"/>
</svg>
